<?xml version="1.0" encoding="UTF-8"?>
<svg version="1.1" xmlns="http://www.w3.org/2000/svg" width="512" height="512">
<path d="M0 0 C14.30510859 13.58262836 22.43242618 33.15188562 23.48950195 52.71289062 C23.55732055 56.45453191 23.61131941 60.19529784 23.625 63.9375 C23.62761841 64.62191162 23.63023682 65.30632324 23.63293457 66.01147461 C23.63985961 82.99761815 20.99077088 99.16722376 15.94921875 115.37890625 C14.49339954 122.37219731 17.54950392 127.10808847 20.875 133 C48.95975312 184.65840537 53.558519 248.33929589 37.44873047 304.44580078 C23.73055924 349.97675278 -3.00772387 392.00343665 -40.6875 421.4375 C-41.65945313 422.22640625 -42.63140625 423.0153125 -43.6328125 423.828125 C-63.07672215 439.32477479 -85.39063953 450.9425122 -108.6875 459.4375 C-109.45255859 459.71722656 -110.21761719 459.99695313 -111.00585938 460.28515625 C-167.09109629 480.35368528 -231.10959714 475.68241649 -284.87475586 450.95849609 C-310.29592976 438.82907024 -310.29592976 438.82907024 -316.6875 432.4375 C-318.73344553 432.52469864 -320.77659449 432.67864121 -322.81640625 432.859375 C-352.58223136 435.19631454 -381.92459849 434.4929309 -405.875 414.3125 C-421.89032978 399.11978748 -429.05009552 378.1806508 -430.03515625 356.5234375 C-430.62159905 332.58345362 -426.2423348 308.19353402 -417.49145508 285.88720703 C-415.54516748 279.95673336 -416.59877031 274.06613065 -417.4128418 267.99780273 C-425.26585032 207.30277244 -407.87138849 144.85621806 -370.6875 96.4375 C-367.25378601 92.16081029 -363.66569352 88.02564452 -360.015625 83.93310547 C-358.80839012 82.57363472 -357.62173532 81.19595816 -356.4375 79.81640625 C-352.80047628 75.60399401 -349.03777395 71.81186536 -344.78125 68.2265625 C-343.3540919 67.00708785 -341.95878521 65.74957148 -340.59375 64.4609375 C-328.9949949 53.53745238 -315.51094006 44.31181118 -301.6875 36.4375 C-300.70620117 35.87216553 -300.70620117 35.87216553 -299.70507812 35.29541016 C-268.46462055 17.47343195 -230.4369079 5.32939331 -194.1328125 6.65625 C-192.11464024 6.70304316 -190.09640613 6.74722787 -188.078125 6.7890625 C-184.95950739 6.85626569 -181.84439835 6.9362176 -178.72753906 7.06152344 C-163.71120692 7.64073166 -153.07016094 5.55702551 -139.78259277 -1.48419189 C-135.20368153 -3.84087851 -130.34368911 -5.52603212 -125.5 -7.25 C-124.46883057 -7.61810791 -123.43766113 -7.98621582 -122.37524414 -8.36547852 C-83.32700825 -21.90546982 -34.08534839 -28.87786461 0 0 Z M-128.6875 12.4375 C-126.28244953 14.84255047 -124.52773868 15.27678011 -121.2890625 16.28515625 C-120.17982422 16.63819824 -119.07058594 16.99124023 -117.92773438 17.35498047 C-116.73470703 17.73283691 -115.54167969 18.11069336 -114.3125 18.5 C-70.99815196 32.6314489 -31.31859362 58.90858014 -3.82421875 95.64453125 C-2.19917143 97.76867903 -0.6448707 99.63215809 1.3125 101.4375 C10.36193417 80.66314677 9.18538256 51.9226146 1.02734375 31.16796875 C-5.52740916 16.65256886 -17.0340357 7.04734124 -31.6875 1.4375 C-63.70567443 -9.07527934 -98.33667692 1.08613116 -128.6875 12.4375 Z M-407.6875 312.4375 C-408.34171182 315.56080453 -408.98426159 318.68640602 -409.625 321.8125 C-409.80740234 322.68261719 -409.98980469 323.55273438 -410.17773438 324.44921875 C-414.75751028 346.93175503 -414.54462007 371.16872248 -402.375 391.3125 C-392.68729792 405.4906391 -379.56827712 412.33258933 -363.015625 416.03515625 C-358.11309179 416.62783339 -353.24523811 416.54137135 -348.3125 416.5 C-347.29027344 416.49548828 -346.26804687 416.49097656 -345.21484375 416.48632812 C-342.70566806 416.474603 -340.1966151 416.45819176 -337.6875 416.4375 C-340.60231252 413.50554153 -343.54216037 410.60322223 -346.5078125 407.72265625 C-355.32708788 399.10384219 -363.40783303 390.3873373 -370.6875 380.4375 C-371.53354192 379.30966154 -372.37989736 378.18205819 -373.2265625 377.0546875 C-387.78540148 357.42763168 -398.66973739 335.48041938 -406.6875 312.4375 C-407.0175 312.4375 -407.3475 312.4375 -407.6875 312.4375 Z " fill="#000101" transform="translate(448.6875,30.5625)"/>
<path d="M0 0 C1.42965088 0.25861816 1.42965088 0.25861816 2.88818359 0.52246094 C47.75681801 8.89793936 88.84505853 29.42047566 121.44726562 61.47363281 C122.82254646 62.82555982 124.21476461 64.16020931 125.609375 65.4921875 C131.23249703 70.94079885 136.16920199 76.84492917 141 83 C141.56460937 83.68578125 142.12921875 84.3715625 142.7109375 85.078125 C146.05962064 89.33335772 146.05962064 89.33335772 145.78735352 92.37768555 C144.93000017 95.2331374 143.77808303 97.5070786 142.27734375 100.08203125 C141.73916016 101.01337891 141.20097656 101.94472656 140.64648438 102.90429688 C140.08251953 103.86400391 139.51855469 104.82371094 138.9375 105.8125 C138.36966797 106.79154297 137.80183594 107.77058594 137.21679688 108.77929688 C135.81745173 111.18993348 134.41170071 113.5965851 133 116 C131.87722656 115.45730469 130.75445312 114.91460937 129.59765625 114.35546875 C104.51277183 102.31629431 79.94900742 99.06075348 53.28515625 108.28515625 C31.52805191 116.91587499 14.8889046 133.20432137 5.27416992 154.37329102 C-3.95874037 175.84211638 -4.83195343 199.46466433 3.61645508 221.29711914 C7.35692541 230.39431241 11.99436883 238.21755487 18 246 C19.00035486 247.33306712 20.00050455 248.6662884 21 250 C13.88687589 256.64869333 6.69284475 263.02126563 -1 269 C-2.27278502 270.01350766 -3.54486099 271.02790612 -4.81640625 272.04296875 C-44.62428225 303.64195331 -89.20429627 329.98182576 -138.25 344.125 C-138.97002197 344.33737305 -139.69004395 344.54974609 -140.43188477 344.76855469 C-144.30242585 345.82513433 -147.21184266 346.45840968 -151 345 C-153.15245257 343.43405464 -155.08599105 341.88669056 -157.0625 340.125 C-157.62686768 339.63322266 -158.19123535 339.14144531 -158.77270508 338.63476562 C-160.52477681 337.1003896 -162.26308054 335.55149024 -164 334 C-164.53141602 333.53174805 -165.06283203 333.06349609 -165.61035156 332.58105469 C-203.69305113 298.99838499 -232.40717606 247.23175648 -236 196 C-237.25539503 172.06116203 -237.78240533 147.39486928 -232 124 C-231.65511445 122.37160812 -231.31264955 120.74270161 -230.97265625 119.11328125 C-228.49952716 108.1037217 -223.81768791 99.89716755 -217 91 C-216.55317871 90.40203613 -216.10635742 89.80407227 -215.64599609 89.18798828 C-209.26425631 80.65520377 -202.35570137 72.70197547 -195 65 C-194.12730469 64.07445312 -193.25460938 63.14890625 -192.35546875 62.1953125 C-185.91121222 55.53404586 -179.02696749 49.79178265 -171.62988281 44.22851562 C-170.19892404 43.14993796 -168.78186854 42.05296605 -167.3671875 40.953125 C-137.19294664 18.06232159 -99.7039902 2.88794144 -62 -1 C-60.44925781 -1.16628906 -60.44925781 -1.16628906 -58.8671875 -1.3359375 C-39.64407191 -2.98618176 -19.01509759 -3.53934983 0 0 Z " fill="#71A8BF" transform="translate(283,98)"/>
<path d="M0 0 C20.43219429 18.58699612 26.99503218 57.87395545 31 84 C31.18006592 85.12003418 31.18006592 85.12003418 31.36376953 86.26269531 C32.09146253 90.83273748 32.60073153 95.39026402 33 100 C33.07863281 100.71027344 33.15726562 101.42054688 33.23828125 102.15234375 C36.64179396 135.4375443 14.08179652 172.83466074 -6 198 C-6.72832031 198.92039062 -7.45664062 199.84078125 -8.20703125 200.7890625 C-15.80504402 210.23667909 -23.67276712 219.23272244 -33 227 C-34.45019531 228.26457031 -34.45019531 228.26457031 -35.9296875 229.5546875 C-70.29567677 259.44066534 -117.35381996 281.10601607 -163.40625 281.16796875 C-164.28921753 281.17129715 -165.17218506 281.17462555 -166.08190918 281.17805481 C-167.94424931 281.18309254 -169.80659837 281.18546412 -171.66894531 281.18530273 C-174.46435163 281.18747233 -177.25935166 281.2056153 -180.0546875 281.22460938 C-194.82955043 281.2723406 -208.91704798 279.96824124 -223.375 276.75 C-224.34977295 276.53384033 -225.3245459 276.31768066 -226.32885742 276.0949707 C-247.57150898 271.2256696 -267.00084147 262.5364065 -286 252 C-285 250 -285 250 -283.14355469 249.24487305 C-281.92007324 248.88196167 -281.92007324 248.88196167 -280.671875 248.51171875 C-279.27654541 248.08101074 -279.27654541 248.08101074 -277.85302734 247.64160156 C-276.31702881 247.16932129 -276.31702881 247.16932129 -274.75 246.6875 C-222.02809524 229.74431025 -174.70920943 197.2528594 -132.9375 161.5078125 C-131.968125 160.68023437 -130.99875 159.85265625 -130 159 C-129.48308594 158.5162793 -128.96617187 158.03255859 -128.43359375 157.53417969 C-126.875 156.1171875 -126.875 156.1171875 -124 154 C-120.46122643 154.44732549 -117.8410985 156.20222577 -114.8215332 158.03515625 C-105.90880007 163.42460334 -97.09588093 166.57612291 -87 169 C-85.82244141 169.29970703 -85.82244141 169.29970703 -84.62109375 169.60546875 C-61.2856237 173.11796126 -37.05622084 166.6647047 -18 153 C-0.86288434 139.40275027 12.52411636 119.81934321 15.6796875 97.81640625 C17.3200378 78.27223258 16.32676989 60.61144258 7 43 C6.24589844 41.53820312 6.24589844 41.53820312 5.4765625 40.046875 C1.71504202 33.15958397 -2.58299227 27.90658253 -8.15625 22.47265625 C-10 20 -10 20 -10.06640625 17.671875 C-8.5705823 13.92409631 -6.57205938 10.60344878 -4.4375 7.1875 C-3.80038086 6.14819336 -3.80038086 6.14819336 -3.15039062 5.08789062 C-2.10690544 3.38783049 -1.05434704 1.69334524 0 0 Z " fill="#71A8BF" transform="translate(439,205)"/>
<path d="M0 0 C1.07507813 0.44601563 2.15015625 0.89203125 3.2578125 1.3515625 C21.38693813 9.65108548 34.19945114 25.12212457 41.33520508 43.46948242 C47.19486978 60.26517945 45.70449047 80.19657837 38.23291016 96.10888672 C35.09913513 102.52719755 31.8042684 108.66692454 27 114 C26.29488281 114.79664063 25.58976562 115.59328125 24.86328125 116.4140625 C11.91031399 130.22221762 -5.50655796 138.70181329 -24.46972656 139.40722656 C-45.40838233 139.685213 -63.84057567 132.58916385 -79 118 C-95.17415242 101.20176453 -99.5404235 82.04651943 -99.2734375 59.390625 C-99.06547178 52.2703728 -98.07237429 46.49716799 -95 40 C-94.21882813 38.34677734 -94.21882813 38.34677734 -93.421875 36.66015625 C-89.96285559 29.8589762 -86.01137331 23.7500111 -81 18 C-80.50371094 17.40960938 -80.00742187 16.81921875 -79.49609375 16.2109375 C-72.17885195 8.17847658 -61.22389396 1.56396304 -51 -2 C-50.2059375 -2.29648438 -49.411875 -2.59296875 -48.59375 -2.8984375 C-32.82503138 -7.83749017 -15.06493367 -6.34136406 0 0 Z " fill="#FBA515" transform="translate(396,221)"/>
<path d="M0 0 C0.97824738 0.00237671 1.95649475 0.00475342 2.96438599 0.00720215 C18.56087362 0.0663237 33.61825478 0.93579938 48.875 4.4375 C49.56319824 4.59234863 50.25139648 4.74719727 50.96044922 4.90673828 C55.01812557 5.85869509 58.93387762 7.08828693 62.875 8.4375 C63.99068359 8.80681641 63.99068359 8.80681641 65.12890625 9.18359375 C89.95364707 17.40605149 112.19676371 28.26263448 132.875 44.4375 C133.82503906 45.17484375 134.77507812 45.9121875 135.75390625 46.671875 C146.17959483 54.98814478 156.49312556 64.02689161 164.875 74.4375 C165.8320091 75.6054869 166.78904281 76.77345363 167.74609375 77.94140625 C172.16794914 83.36850815 176.57635049 88.83276119 180.6875 94.5 C181.37779297 95.44552734 181.37779297 95.44552734 182.08203125 96.41015625 C184.29904846 102.07829385 180.28985522 108.85705394 178.125 114.125 C177.76664062 115.00897461 177.40828125 115.89294922 177.0390625 116.80371094 C174.47402426 123.08943864 171.798661 129.30905674 168.875 135.4375 C165.68724997 132.44898435 162.94416265 129.31754116 160.25 125.875 C155.42759403 119.77206815 150.20640089 114.09155051 144.875 108.4375 C143.78058594 107.261875 143.78058594 107.261875 142.6640625 106.0625 C136.30834192 99.44688006 129.1845901 93.94249786 121.875 88.4375 C121.3274707 88.01855469 120.77994141 87.59960938 120.21582031 87.16796875 C105.17940564 75.70645484 88.49510541 66.28758982 70.875 59.4375 C70.03324219 59.10766113 69.19148438 58.77782227 68.32421875 58.43798828 C50.480729 51.51693512 32.80235257 47.1275816 13.875 44.4375 C13.20428467 44.33961182 12.53356934 44.24172363 11.8425293 44.14086914 C4.80807795 43.22934215 -2.22846638 43.24505336 -9.3125 43.25 C-9.96985138 43.25027191 -10.62720276 43.25054382 -11.30447388 43.25082397 C-28.49591594 43.28335247 -45.37516198 44.41126422 -62.125 48.4375 C-63.20031982 48.69055908 -63.20031982 48.69055908 -64.29736328 48.94873047 C-97.00942861 56.73268828 -127.05455641 71.13153903 -153.125 92.4375 C-153.64723145 92.85821777 -154.16946289 93.27893555 -154.70751953 93.71240234 C-171.7345042 107.46317813 -185.43419165 123.11878214 -197.95410156 140.99609375 C-199.57390401 143.30663489 -201.12497989 145.43747989 -203.125 147.4375 C-202.23363332 140.9526139 -199.82746472 135.57082235 -197.1875 129.625 C-196.69386963 128.5114917 -196.20023926 127.3979834 -195.69165039 126.25073242 C-181.71047931 95.28300828 -159.75554431 67.49171556 -133.125 46.4375 C-132.19558594 45.66792969 -131.26617187 44.89835937 -130.30859375 44.10546875 C-93.78457485 14.6291093 -46.55359658 -0.29930675 0 0 Z " fill="#0F536F" transform="translate(261.125,53.5625)"/>
<path d="M0 0 C5.28 0 10.56 0 16 0 C16 5.28 16 10.56 16 16 C18.64 16 21.28 16 24 16 C24 10.72 24 5.44 24 0 C29.61 0 35.22 0 41 0 C41 5.28 41 10.56 41 16 C42.98 16.33 44.96 16.66 47 17 C54.57081187 19.50473589 59.78029779 24.75361316 63.4375 31.75 C65.12500272 41.50001571 64.24155573 48.53863147 59 57 C59.639375 57.9075 60.27875 58.815 60.9375 59.75 C64.73420553 65.73268751 64.76875041 72.04630307 64 79 C61.38760474 86.52189668 56.69922224 90.71750117 50.0625 94.8125 C47 96 47 96 40 96 C40 101.28 40 106.56 40 112 C34.72 112 29.44 112 24 112 C24 106.72 24 101.44 24 96 C21.36 96 18.72 96 16 96 C16 101.28 16 106.56 16 112 C10.72 112 5.44 112 0 112 C0 106.72 0 101.44 0 96 C-7.92 96 -15.84 96 -24 96 C-24 90.72 -24 85.44 -24 80 C-18.72 80 -13.44 80 -8 80 C-8 64.16 -8 48.32 -8 32 C-13.28 32 -18.56 32 -24 32 C-24 26.72 -24 21.44 -24 16 C-16.08 16 -8.16 16 0 16 C0 10.72 0 5.44 0 0 Z " fill="#050300" transform="translate(352,232)"/>
<path d="M0 0 C3.31099596 2.70081241 4.68621682 6.29086412 6.3125 10.125 C6.61663818 10.8372876 6.92077637 11.5495752 7.23413086 12.28344727 C12.2407361 24.18016323 16.18490018 36.07568893 19.25 48.625 C19.4962915 49.62523193 19.74258301 50.62546387 19.99633789 51.65600586 C23.44867774 66.34902117 24.37218562 80.60612105 24.3125 95.625 C24.31126129 96.94461731 24.31126129 96.94461731 24.30999756 98.29089355 C24.28318234 110.70662085 23.80470459 122.79987464 21.38916016 135.01513672 C20.78410601 138.10114061 20.30804048 141.20735065 19.8125 144.3125 C19.54437592 145.87546719 19.27485064 147.43820166 19 149 C18.67 149 18.34 149 18 149 C17.93268677 148.02111816 17.93268677 148.02111816 17.86401367 147.02246094 C15.05643358 107.09398683 7.72501515 68.35408971 -14 34 C-14.33 33.34 -14.66 32.68 -15 32 C-13.9519043 29.3737793 -13.9519043 29.3737793 -12.32421875 26.07421875 C-12.03899857 25.4896138 -11.75377838 24.90500885 -11.45991516 24.3026886 C-10.54319536 22.42721283 -9.61578295 20.55727562 -8.6875 18.6875 C-7.7720594 16.82746158 -6.85887041 14.96634517 -5.94721985 13.10444641 C-5.11422732 11.4058044 -4.27539858 9.7100281 -3.4362793 8.0144043 C-2.17801835 5.37361764 -1.04779434 2.72983831 0 0 Z " fill="#0F536F" transform="translate(454,172)"/>
<path d="M0 0 C1.07507813 0.44601563 2.15015625 0.89203125 3.2578125 1.3515625 C21.37781381 9.64690837 34.21628624 25.12272031 41.33447266 43.47241211 C45.24052699 54.638913 44.47494542 66.33241779 44 78 C43.67 78 43.34 78 43 78 C42.90203125 77.05640625 42.8040625 76.1128125 42.703125 75.140625 C40.30032113 54.50965386 31.80659038 35.62462107 15.54833984 22.08544922 C-2.83386648 7.5591043 -23.73553443 1.82680281 -47 4 C-52.47820471 4.85797864 -57.70043851 6.38298458 -63 8 C-65.66061232 8.69412367 -68.32853286 9.34827944 -71 10 C-54.45819582 -8.86272058 -21.33579404 -8.98099125 0 0 Z " fill="#F18F1A" transform="translate(396,221)"/>
<path d="M0 0 C4.75111878 -0.06900495 9.50048771 -0.12869507 14.25170898 -0.16479492 C15.86667789 -0.17984876 17.48160613 -0.20029648 19.09643555 -0.22631836 C21.42246555 -0.26285286 23.74795341 -0.27976015 26.07421875 -0.29296875 C27.15107185 -0.31619453 27.15107185 -0.31619453 28.24967957 -0.33988953 C32.68310969 -0.34136614 35.47899113 0.26328577 39 3 C40.54586876 6.09173752 40.29359521 8.59429552 40 12 C38.49707031 14.20214844 38.49707031 14.20214844 36 16 C33.1103488 16.3491005 30.6140729 16.4681562 27.734375 16.390625 C26.94097717 16.38496521 26.14757935 16.37930542 25.33013916 16.37347412 C22.80280527 16.35113147 20.27690335 16.30094176 17.75 16.25 C16.03387468 16.22993214 14.31772708 16.21168187 12.6015625 16.1953125 C8.40004987 16.15467892 4.20162233 16.07639313 0 16 C0 10.72 0 5.44 0 0 Z " fill="#F7A215" transform="translate(360,296)"/>
<path d="M0 0 C4.75111878 -0.06900495 9.50048771 -0.12869507 14.25170898 -0.16479492 C15.86667789 -0.17984876 17.48160613 -0.20029648 19.09643555 -0.22631836 C21.42246555 -0.26285286 23.74795341 -0.27976015 26.07421875 -0.29296875 C27.15107185 -0.31619453 27.15107185 -0.31619453 28.24967957 -0.33988953 C32.68310969 -0.34136614 35.47899113 0.26328577 39 3 C40.54586876 6.09173752 40.29359521 8.59429552 40 12 C38.49707031 14.20214844 38.49707031 14.20214844 36 16 C33.1103488 16.3491005 30.6140729 16.4681562 27.734375 16.390625 C26.94097717 16.38496521 26.14757935 16.37930542 25.33013916 16.37347412 C22.80280527 16.35113147 20.27690335 16.30094176 17.75 16.25 C16.03387468 16.22993214 14.31772708 16.21168187 12.6015625 16.1953125 C8.40004987 16.15467892 4.20162233 16.07639313 0 16 C0 10.72 0 5.44 0 0 Z " fill="#F7A215" transform="translate(360,264)"/>
</svg>
